<svg width="1903" height="2403" viewBox="0 0 1903 2403" fill="none" xmlns="http://www.w3.org/2000/svg">
<g opacity="0.4">
<path d="M69.1594 2209.2C73.5446 2218.61 77.884 2228.36 82.2865 2238.25C96.4776 2270.13 111.325 2303.5 130.481 2331.66C155.532 2368.49 187.764 2396.12 235.183 2399.66C281.129 2403.08 313.642 2376.83 344.619 2342.95C352.356 2334.48 359.978 2325.57 367.683 2316.54L368.233 2315.9C375.754 2307.09 383.357 2298.18 391.202 2289.53C407.271 2271.8 424.41 2255.08 444.084 2242.33C465.65 2228.35 491.082 2218.64 517.429 2210.52C530.607 2206.46 544.038 2202.78 557.344 2199.17C558.218 2198.93 559.091 2198.7 559.964 2198.46C572.387 2195.09 584.678 2191.76 596.569 2188.18C647.611 2172.84 690.479 2153.26 703.728 2108.69C717.937 2060.9 704.654 2008.76 675.635 1963.12C646.622 1917.49 601.99 1878.54 553.881 1857.21C512.606 1838.91 470.239 1849.3 426.242 1867.07C412.96 1872.43 399.614 1878.43 386.125 1884.5C377.242 1888.49 368.296 1892.51 359.266 1896.4C336.591 1906.15 313.521 1915 290.075 1920.12C267.582 1925.05 243.595 1926.36 219.512 1926.67C209.936 1926.79 200.369 1926.75 190.871 1926.71C176.402 1926.65 162.092 1926.59 148.151 1927.1C101.999 1928.78 61.0424 1936.66 35.1558 1970.61C8.16095 2006.03 7.52489 2046.15 18.2547 2087.28C27.0087 2120.84 43.2661 2154.85 58.7768 2187.3C62.3088 2194.68 65.8022 2201.99 69.1594 2209.2Z" stroke="#E2FFC0" stroke-width="3"/>
<path d="M133.398 2191.02C136.856 2198.44 140.276 2206.13 143.744 2213.92C154.915 2239.02 166.589 2265.25 181.654 2287.4C201.348 2316.35 226.651 2338.03 263.854 2340.8C299.872 2343.49 325.379 2322.92 349.757 2296.25C355.844 2289.6 361.842 2282.58 367.909 2275.47L368.344 2274.96C374.264 2268.03 380.253 2261.01 386.433 2254.2C399.092 2240.23 412.608 2227.04 428.133 2216.98C445.15 2205.95 465.207 2198.3 485.961 2191.9C496.343 2188.7 506.922 2185.8 517.398 2182.96C518.086 2182.77 518.774 2182.59 519.461 2182.4C529.243 2179.75 538.916 2177.12 548.273 2174.31C588.47 2162.23 622.049 2146.85 632.427 2111.95C643.579 2074.43 633.162 2033.48 610.344 1997.59C587.533 1961.71 552.439 1931.09 514.619 1914.32C482.246 1899.97 448.997 1908.1 414.37 1922.09C403.916 1926.31 393.421 1931.03 382.807 1935.8C375.812 1938.94 368.765 1942.11 361.644 1945.17C343.785 1952.86 325.599 1959.83 307.108 1963.88C289.367 1967.76 270.455 1968.79 251.487 1969.03C243.936 1969.13 236.4 1969.1 228.92 1969.07C217.535 1969.02 206.282 1968.98 195.31 1969.38C158.981 1970.7 126.873 1976.9 106.588 2003.51C85.4182 2031.28 84.903 2062.75 93.3378 2095.09C100.222 2121.47 113.005 2148.22 125.217 2173.77C127.999 2179.59 130.751 2185.34 133.398 2191.02Z" stroke="#E9DAFF" stroke-width="3"/>
<path d="M179.81 2177.9C182.598 2183.88 185.353 2190.07 188.147 2196.35C197.136 2216.54 206.517 2237.62 218.626 2255.42C234.45 2278.69 254.746 2296.06 284.568 2298.28C313.413 2300.43 333.857 2283.97 353.467 2262.52C358.363 2257.17 363.186 2251.53 368.07 2245.8L368.422 2245.39C373.185 2239.81 378.008 2234.16 382.985 2228.67C393.18 2217.43 404.079 2206.79 416.606 2198.67C430.337 2189.77 446.51 2183.6 463.223 2178.45C471.584 2175.87 480.103 2173.54 488.535 2171.25C489.088 2171.1 489.641 2170.95 490.194 2170.8C498.068 2168.67 505.85 2166.55 513.377 2164.29C545.738 2154.56 572.605 2142.23 580.908 2114.3C589.851 2084.22 581.504 2051.34 563.167 2022.5C544.837 1993.67 516.635 1969.06 486.249 1955.59C460.308 1944.09 433.647 1950.59 405.791 1961.84C397.38 1965.24 388.944 1969.03 380.407 1972.87C374.777 1975.4 369.102 1977.95 363.361 1980.42C348.982 1986.61 334.324 1992.23 319.414 1995.49C305.105 1998.62 289.861 1999.46 274.588 1999.65C268.5 1999.73 262.43 1999.7 256.409 1999.68C247.253 1999.64 238.209 1999.6 229.381 1999.92C200.151 2000.99 174.436 2005.98 158.198 2027.28C141.237 2049.53 140.809 2074.75 147.585 2100.73C153.118 2121.94 163.391 2143.43 173.219 2163.99C175.459 2168.68 177.677 2173.32 179.81 2177.9Z" stroke="#E2FFC0" stroke-width="3"/>
</g>
<g opacity="0.4">
<path d="M1769.68 1444.46C1761.87 1437.62 1753.96 1430.45 1745.94 1423.18C1720.08 1399.74 1693.03 1375.21 1664.14 1357.18C1626.35 1333.6 1585.71 1321.33 1540.9 1337.23C1497.48 1352.65 1478.33 1389.8 1463.67 1433.3C1460.01 1444.16 1456.63 1455.4 1453.23 1466.77L1452.98 1467.58C1449.66 1478.68 1446.3 1489.9 1442.62 1500.98C1435.07 1523.68 1426.14 1545.9 1413.29 1565.51C1399.2 1587 1379.85 1606.15 1359.03 1624.22C1348.61 1633.26 1337.81 1642.04 1327.09 1650.71C1326.39 1651.28 1325.68 1651.85 1324.98 1652.42C1314.98 1660.52 1305.08 1668.53 1295.64 1676.6C1255.14 1711.25 1223.82 1746.46 1229.69 1792.59C1235.99 1842.05 1269.19 1884.39 1314.16 1914.43C1359.13 1944.47 1415.68 1962.08 1468.31 1962.17C1513.46 1962.25 1548.03 1935.64 1581.11 1901.62C1591.09 1891.35 1600.88 1880.48 1610.77 1869.49C1617.29 1862.25 1623.85 1854.96 1630.54 1847.76C1647.35 1829.67 1664.89 1812.27 1684.27 1798.11C1702.86 1784.53 1724.27 1773.64 1746.18 1763.64C1754.89 1759.67 1763.66 1755.84 1772.37 1752.04C1785.63 1746.25 1798.74 1740.53 1811.29 1734.44C1852.84 1714.27 1887.13 1690.53 1897.11 1649.01C1907.51 1605.71 1891.89 1568.75 1865.47 1535.45C1843.91 1508.28 1815.31 1483.73 1788.02 1460.31C1781.8 1454.97 1775.66 1449.7 1769.68 1444.46Z" stroke="#E2FFC0" stroke-width="3"/>
<path d="M1718.25 1487.02C1712.09 1481.63 1705.86 1475.98 1699.54 1470.25C1679.18 1451.79 1657.91 1432.51 1635.19 1418.33C1605.48 1399.79 1573.58 1390.17 1538.43 1402.66C1504.39 1414.74 1489.36 1443.86 1477.82 1478.09C1474.94 1486.64 1472.28 1495.48 1469.6 1504.43L1469.41 1505.07C1466.79 1513.81 1464.15 1522.65 1461.24 1531.38C1455.3 1549.26 1448.26 1566.78 1438.12 1582.26C1427 1599.22 1411.74 1614.32 1395.34 1628.55C1387.13 1635.67 1378.62 1642.59 1370.18 1649.42C1369.63 1649.87 1369.08 1650.32 1368.52 1650.76C1360.64 1657.14 1352.85 1663.45 1345.43 1669.8C1313.53 1697.08 1289.02 1724.7 1293.61 1760.83C1298.55 1799.65 1324.62 1832.91 1359.98 1856.54C1395.34 1880.15 1439.81 1894 1481.18 1894.07C1516.59 1894.14 1543.72 1873.27 1569.76 1846.5C1577.62 1838.41 1585.32 1829.86 1593.1 1821.21C1598.23 1815.51 1603.4 1809.77 1608.68 1804.09C1621.91 1789.85 1635.74 1776.13 1651.02 1764.96C1665.68 1754.25 1682.57 1745.67 1699.83 1737.79C1706.7 1734.65 1713.6 1731.64 1720.46 1728.65C1730.89 1724.09 1741.21 1719.59 1751.08 1714.8C1783.79 1698.92 1810.66 1680.29 1818.47 1647.75C1826.63 1613.8 1814.4 1584.79 1793.63 1558.62C1776.68 1537.26 1754.18 1517.95 1732.7 1499.51C1727.8 1495.3 1722.96 1491.15 1718.25 1487.02Z" stroke="#E9DAFF" stroke-width="3"/>
<path d="M1681.08 1517.77C1676.12 1513.42 1671.1 1508.87 1666.01 1504.25C1649.63 1489.4 1632.54 1473.91 1614.27 1462.51C1590.4 1447.61 1564.82 1439.92 1536.64 1449.92C1509.38 1459.6 1497.32 1482.91 1488.04 1510.45C1485.72 1517.33 1483.59 1524.43 1481.43 1531.64L1481.27 1532.16C1479.17 1539.19 1477.04 1546.3 1474.7 1553.34C1469.91 1567.74 1464.24 1581.87 1456.05 1594.36C1447.08 1608.04 1434.78 1620.22 1421.57 1631.68C1414.96 1637.41 1408.11 1642.98 1401.32 1648.48C1400.87 1648.84 1400.42 1649.2 1399.98 1649.56C1393.64 1654.69 1387.37 1659.77 1381.4 1664.88C1355.72 1686.84 1336.12 1708.97 1339.8 1737.88C1343.76 1769.01 1364.67 1795.72 1393.09 1814.7C1421.5 1833.68 1457.23 1844.81 1490.47 1844.86C1518.85 1844.91 1540.61 1828.2 1561.56 1806.66C1567.88 1800.16 1574.07 1793.28 1580.33 1786.33C1584.46 1781.74 1588.62 1777.11 1592.87 1772.53C1603.53 1761.07 1614.67 1750.01 1627 1741.01C1638.82 1732.37 1652.44 1725.45 1666.33 1719.11C1671.87 1716.58 1677.43 1714.15 1682.95 1711.74C1691.34 1708.08 1699.63 1704.46 1707.58 1700.6C1733.89 1687.83 1755.4 1672.88 1761.66 1646.84C1768.19 1619.64 1758.4 1596.38 1741.72 1575.36C1728.09 1558.19 1710.02 1542.67 1692.72 1527.83C1688.78 1524.44 1684.88 1521.09 1681.08 1517.77Z" stroke="#E2FFC0" stroke-width="3"/>
</g>
<g opacity="0.4">
<path d="M498.915 759.289C506.556 752.262 514.536 745.175 522.632 737.985C548.728 714.809 576.033 690.56 597.076 663.779C624.595 628.757 641.178 589.674 630.197 543.408C619.557 498.58 584.69 475.539 543.024 456.269C532.617 451.455 521.814 446.889 510.878 442.277L510.097 441.948C499.424 437.447 488.632 432.896 478.011 428.038C456.254 418.086 435.132 406.812 417.023 391.919C397.174 375.595 380.224 354.295 364.508 331.642C356.647 320.311 349.081 308.622 341.612 297.033C341.121 296.272 340.631 295.511 340.141 294.751C333.17 283.931 326.272 273.225 319.266 262.974C289.193 218.97 257.563 184.037 211.075 184.897C161.223 185.819 115.549 214.259 80.8293 255.731C46.1178 297.194 22.5061 351.52 16.7357 403.828C11.785 448.707 34.5108 485.942 64.7629 522.498C73.8955 533.533 83.6522 544.438 93.5134 555.459C100.008 562.717 106.548 570.026 112.984 577.456C129.147 596.115 144.556 615.427 156.541 636.222C168.038 656.17 176.552 678.634 184.131 701.496C187.144 710.585 190.003 719.715 192.841 728.78C197.164 742.588 201.44 756.244 206.143 769.378C221.711 812.857 241.613 849.51 281.814 863.904C323.736 878.916 362.169 867.379 398.122 844.704C427.456 826.205 454.951 800.417 481.184 775.813C487.158 770.21 493.066 764.669 498.915 759.289Z" stroke="#E9DAFF" stroke-width="3"/>
<path d="M462.154 703.563C468.179 698.022 474.468 692.437 480.846 686.772C501.389 668.528 522.856 649.463 539.405 628.402C561.04 600.869 574.04 570.193 565.425 533.895C557.084 498.753 529.759 480.668 496.968 465.503C488.78 461.716 480.279 458.123 471.668 454.492L471.051 454.231C462.649 450.688 454.149 447.103 445.782 443.276C428.642 435.437 411.982 426.546 397.692 414.794C382.03 401.913 368.665 385.114 356.285 367.27C350.092 358.344 344.132 349.136 338.252 340.012C337.865 339.413 337.479 338.814 337.094 338.215C331.604 329.695 326.176 321.27 320.663 313.203C296.979 278.549 272.165 251.197 235.753 251.871C196.626 252.595 160.744 274.919 133.445 307.528C106.153 340.128 87.5882 382.843 83.052 423.964C79.1691 459.163 96.9855 488.392 120.794 517.161C127.983 525.847 135.655 534.423 143.415 543.095C148.529 548.81 153.681 554.568 158.757 560.427C171.486 575.122 183.634 590.346 193.086 606.745C202.155 622.48 208.866 640.191 214.835 658.197C217.211 665.366 219.463 672.558 221.698 679.696C225.1 690.56 228.462 701.299 232.164 711.637C244.418 745.861 260.045 774.587 291.547 785.867C324.424 797.639 354.577 788.604 382.841 770.78C405.908 756.232 427.528 735.955 448.181 716.584C452.887 712.17 457.543 707.804 462.154 703.563Z" stroke="#E2FFC0" stroke-width="3"/>
<path d="M435.595 663.301C440.452 658.833 445.52 654.333 450.657 649.77C467.186 635.09 484.437 619.77 497.739 602.841C515.122 580.719 525.533 556.117 518.627 527.021C511.948 498.878 490.071 484.375 463.694 472.176C457.109 469.13 450.272 466.24 443.341 463.317L442.842 463.107C436.081 460.255 429.236 457.369 422.498 454.287C408.694 447.973 395.258 440.805 383.728 431.322C371.09 420.929 360.315 407.382 350.345 393.012C345.358 385.823 340.559 378.409 335.826 371.065C335.515 370.583 335.205 370.102 334.894 369.62C330.476 362.762 326.109 355.984 321.674 349.495C302.607 321.596 282.717 299.722 253.586 300.261C222.208 300.842 193.401 318.747 171.462 344.953C149.532 371.149 134.614 405.476 130.969 438.514C127.858 466.719 142.127 490.162 161.281 513.306C167.064 520.295 173.231 527.187 179.472 534.162C183.589 538.763 187.738 543.399 191.83 548.124C202.08 559.956 211.871 572.225 219.493 585.449C226.807 598.139 232.216 612.416 237.022 626.914C238.938 632.694 240.751 638.486 242.55 644.232C245.286 652.97 247.988 661.601 250.966 669.918C260.827 697.455 273.365 720.454 298.581 729.483C324.923 738.915 349.094 731.689 371.801 717.368C390.341 705.676 407.716 689.38 424.338 673.79C428.128 670.236 431.878 666.719 435.595 663.301Z" stroke="#E9DAFF" stroke-width="3"/>
</g>
<g opacity="0.4">
<path d="M1887.74 310.527C1886.84 300.185 1886.09 289.539 1885.34 278.737C1882.91 243.92 1880.37 207.491 1872 174.476C1861.06 131.301 1840.22 94.3094 1796.87 74.7684C1754.87 55.8342 1715.33 69.3889 1674.64 90.631C1664.47 95.9368 1654.26 101.707 1643.93 107.554L1643.2 107.972C1633.12 113.679 1622.92 119.449 1612.59 124.897C1591.43 136.057 1569.61 145.906 1546.76 151.16C1521.71 156.92 1494.49 157.344 1466.96 155.966C1453.18 155.277 1439.31 154.135 1425.57 152.978C1424.67 152.902 1423.76 152.826 1422.86 152.75C1410.04 151.668 1397.35 150.597 1384.95 149.889C1331.74 146.851 1284.76 150.583 1257.07 187.932C1227.37 227.983 1222.02 281.521 1233.68 334.337C1245.33 387.14 1273.95 439.002 1311.86 475.501C1344.39 506.815 1387.76 511.542 1435.18 509.891C1449.49 509.393 1464.09 508.321 1478.84 507.236C1488.55 506.522 1498.33 505.803 1508.14 505.24C1532.79 503.826 1557.49 503.409 1581.28 506.608C1604.1 509.677 1627.09 516.644 1649.82 524.595C1658.86 527.757 1667.84 531.065 1676.75 534.35C1690.33 539.353 1703.76 544.302 1717.03 548.593C1760.97 562.8 1802.15 569.408 1838.09 546.35C1875.57 522.306 1889.89 484.821 1893.88 442.502C1897.13 407.975 1893.48 370.455 1890.01 334.658C1889.21 326.506 1888.43 318.444 1887.74 310.527Z" stroke="#E2FFC0" stroke-width="3"/>
<path d="M1821.16 305.633C1820.45 297.478 1819.86 289.087 1819.27 280.578C1817.36 253.17 1815.36 224.528 1808.78 198.564C1800.17 164.621 1783.81 135.6 1749.8 120.269C1716.87 105.426 1685.87 116.032 1653.84 132.749C1645.84 136.924 1637.81 141.464 1629.68 146.068L1629.09 146.398C1621.16 150.891 1613.13 155.436 1604.99 159.728C1588.32 168.519 1571.11 176.289 1553.08 180.435C1533.32 184.98 1511.85 185.312 1490.16 184.227C1479.31 183.684 1468.38 182.784 1457.56 181.873C1456.85 181.813 1456.14 181.754 1455.43 181.694C1445.33 180.842 1435.34 179.999 1425.59 179.442C1383.68 177.05 1346.87 180.01 1325.18 209.264C1301.87 240.698 1297.65 282.747 1306.82 324.275C1315.98 365.792 1338.49 406.57 1368.29 435.262C1393.8 459.823 1427.83 463.55 1465.15 462.251C1476.42 461.859 1487.9 461.016 1499.5 460.163C1507.15 459.6 1514.86 459.034 1522.59 458.59C1542 457.476 1561.48 457.146 1580.24 459.669C1598.24 462.089 1616.36 467.583 1634.27 473.846C1641.4 476.339 1648.47 478.945 1655.49 481.532C1666.17 485.469 1676.73 489.361 1687.18 492.738C1721.76 503.921 1754.06 509.076 1782.22 491.008C1811.61 472.152 1822.86 442.753 1825.99 409.485C1828.55 382.334 1825.68 352.831 1822.95 324.648C1822.32 318.227 1821.71 311.874 1821.16 305.633Z" stroke="#E9DAFF" stroke-width="3"/>
<path d="M1773.06 302.094C1772.48 295.519 1772.01 288.758 1771.53 281.905C1769.99 259.851 1768.39 236.836 1763.1 215.966C1756.18 188.693 1743.05 165.43 1715.79 153.141C1689.42 141.254 1664.58 149.73 1638.82 163.178C1632.38 166.535 1625.92 170.187 1619.38 173.893L1618.9 174.16C1612.52 177.775 1606.05 181.435 1599.5 184.891C1586.07 191.971 1572.19 198.238 1557.65 201.584C1541.7 205.251 1524.39 205.517 1506.92 204.643C1498.19 204.206 1489.38 203.481 1480.68 202.748C1480.11 202.7 1479.53 202.652 1478.96 202.604C1470.83 201.918 1462.8 201.24 1454.95 200.792C1421.22 198.866 1391.75 201.269 1374.4 224.674C1355.7 249.883 1352.3 283.63 1359.67 317.003C1367.03 350.365 1385.12 383.134 1409.06 406.186C1429.51 425.867 1456.78 428.873 1486.81 427.828C1495.87 427.512 1505.1 426.834 1514.43 426.148C1520.59 425.695 1526.79 425.239 1533.03 424.881C1548.66 423.984 1564.36 423.717 1579.48 425.752C1594 427.704 1608.61 432.134 1623.03 437.176C1628.78 439.186 1634.47 441.285 1640.12 443.367C1648.71 446.534 1657.2 449.662 1665.6 452.379C1693.44 461.377 1719.31 465.483 1741.85 451.02C1765.4 435.912 1774.43 412.355 1776.95 385.627C1779 363.805 1776.7 340.095 1774.49 317.413C1773.99 312.242 1773.5 307.124 1773.06 302.094Z" stroke="#E2FFC0" stroke-width="3"/>
</g>
</svg>
